<?xml version="1.0" encoding="UTF-8"?>
<svg id="Layer_1" xmlns="http://www.w3.org/2000/svg" version="1.1" viewBox="0 0 3485.79 441.93">
  <!-- Generator: Adobe Illustrator 29.5.0, SVG Export Plug-In . SVG Version: 2.1.0 Build 137)  -->
  <defs>
    <style>
      .st0, .st1 {
        fill: #fff;
      }

      .st2, .st3, .st4 {
        fill: #006837;
      }

      .st1 {
        stroke-width: 21px;
      }

      .st1, .st3 {
        stroke: #006837;
        stroke-miterlimit: 10;
      }

      .st4 {
        font-family: MyriadPro-Regular, 'Myriad Pro';
        font-size: 354.51px;
        letter-spacing: .27em;
      }
    </style>
  </defs>
  <g>
    <ellipse class="st3" cx="369.7" cy="398.7" rx="6.58" ry="5.23"/>
    <g>
      <path class="st1" d="M442.39,222.08c5.58-62.63-14.02-128-72.87-180.42-56.48,49.7-80.83,114.96-71.47,178.56"/>
      <g>
        <path class="st1" d="M500.47,357.9c-40.23,21.25-81.59,28.88-125.7,40.44-2.7-11.87-20-93.62,29.89-148.24,55.75-61.05,176.01-66.93,271.82,7.55-16.54.11-44.84,6.24-59.45,13.64-18.04,9.14-35.3,28.2-49.93,40.22-25.02,20.57-37.7,31.11-66.63,46.39Z"/>
        <g>
          <path class="st0" d="M376.29,395.09c11.15-21.89,35.83-63.15,83.32-97.67,44.45-32.31,88.06-43.57,111.91-47.95"/>
          <path class="st2" d="M372.56,393.19c2.29-4.82,4.76-9.56,7.38-14.22.66-1.16,1.34-2.31,2.01-3.47.68-1.15,1.33-2.32,2.05-3.44l2.12-3.4c.36-.57.7-1.14,1.07-1.7l1.11-1.67,2.21-3.34c.73-1.12,1.53-2.19,2.3-3.29l2.32-3.27c.38-.55.78-1.09,1.19-1.62l1.21-1.6c1.6-2.14,3.21-4.27,4.92-6.33l2.53-3.11c.42-.52.83-1.04,1.27-1.55l1.31-1.52c6.94-8.13,14.38-15.84,22.31-22.99.99-.9,1.95-1.82,2.96-2.7l3.04-2.6,3.04-2.6c.51-.43,1.01-.87,1.53-1.29l1.57-1.24,6.27-4.96c2.13-1.6,4.3-3.15,6.45-4.72,1.08-.77,2.15-1.58,3.25-2.32l3.32-2.22,3.32-2.21c.56-.37,1.1-.75,1.67-1.1l1.7-1.05,6.8-4.17,6.94-3.94c9.34-5.08,18.94-9.65,28.76-13.62,9.83-3.95,19.87-7.35,30.08-10.09,5.09-1.42,10.24-2.59,15.39-3.69,5.17-1.05,10.36-1.95,15.57-2.7-5.13,1.16-10.22,2.5-15.28,3.89l-3.78,1.11-1.89.56-1.87.6-3.75,1.18c-1.25.39-2.48.84-3.72,1.26-9.91,3.41-19.62,7.3-29.06,11.76-9.45,4.43-18.64,9.38-27.51,14.81l-6.61,4.14-6.46,4.37-1.61,1.09c-.53.37-1.05.76-1.58,1.14l-3.14,2.3-3.14,2.3c-1.04.77-2.04,1.6-3.06,2.4-2.03,1.61-4.09,3.2-6.1,4.83l-5.92,5.05-1.48,1.26c-.49.43-.96.87-1.43,1.31l-2.86,2.63-2.86,2.63c-.95.88-1.85,1.82-2.77,2.72l-2.76,2.73c-.92.91-1.85,1.81-2.73,2.76l-5.35,5.62-5.16,5.8c-.87.95-1.68,1.96-2.52,2.95l-2.5,2.96c-13.18,15.93-24.72,33.18-34.63,51.36l-7.45-3.79Z"/>
        </g>
      </g>
      <g>
        <path class="st1" d="M238.93,357.9c40.23,21.25,81.59,28.88,125.7,40.44,2.7-11.87,20-93.62-29.89-148.24-55.75-61.05-176.01-66.93-271.82,7.55,16.54.11,44.84,6.24,59.45,13.64,18.04,9.14,35.3,28.2,49.93,40.22,25.02,20.57,37.7,31.11,66.63,46.39Z"/>
        <g>
          <path class="st0" d="M363.12,395.09c-11.15-21.89-35.83-63.15-83.32-97.67-44.45-32.31-88.06-43.57-111.91-47.95"/>
          <path class="st2" d="M359.39,396.99c-9.91-18.19-21.44-35.43-34.63-51.36l-2.5-2.96c-.84-.99-1.64-2-2.52-2.95l-5.16-5.8-5.35-5.62c-.88-.95-1.8-1.85-2.73-2.76l-2.76-2.73c-.93-.9-1.83-1.84-2.77-2.72l-2.86-2.63-2.86-2.63c-.48-.44-.95-.88-1.43-1.31l-1.48-1.26-5.92-5.05c-2.01-1.63-4.07-3.21-6.1-4.83-1.02-.8-2.02-1.63-3.06-2.4l-3.14-2.3-3.14-2.3c-.53-.38-1.04-.78-1.58-1.14l-1.61-1.09-6.46-4.37-6.61-4.14c-8.88-5.43-18.06-10.38-27.51-14.81-9.44-4.46-19.16-8.35-29.06-11.76-1.24-.42-2.47-.87-3.72-1.26l-3.75-1.18-1.87-.6-1.89-.56-3.78-1.11c-5.06-1.39-10.14-2.73-15.28-3.89,5.21.75,10.4,1.65,15.57,2.7,5.15,1.1,10.31,2.27,15.39,3.69,10.2,2.75,20.24,6.14,30.08,10.09,9.83,3.97,19.43,8.54,28.76,13.62l6.94,3.94,6.8,4.17,1.7,1.05c.56.35,1.11.73,1.67,1.1l3.32,2.21,3.32,2.22c1.1.75,2.16,1.55,3.25,2.32,2.15,1.57,4.32,3.13,6.45,4.72l6.27,4.96,1.57,1.24c.52.42,1.02.86,1.53,1.29l3.04,2.6,3.04,2.6c1.01.88,1.97,1.8,2.96,2.7,7.93,7.15,15.37,14.86,22.31,22.99l1.31,1.52c.44.5.85,1.03,1.27,1.55l2.53,3.11c1.71,2.06,3.32,4.19,4.92,6.33l1.21,1.6c.41.53.8,1.07,1.19,1.62l2.32,3.27c.77,1.09,1.57,2.17,2.3,3.29l2.21,3.34,1.11,1.67c.36.56.71,1.13,1.07,1.7l2.12,3.4c.72,1.12,1.37,2.3,2.05,3.44.67,1.16,1.35,2.3,2.01,3.47,2.62,4.66,5.09,9.4,7.38,14.22l-7.45,3.79Z"/>
        </g>
      </g>
      <g>
        <line class="st0" x1="369.7" y1="109.28" x2="369.7" y2="318.08"/>
        <path class="st2" d="M369.7,109.28c.92,8.7,1.56,17.4,2.09,26.1.53,8.7.98,17.4,1.3,26.1l.46,13.05c.15,4.35.32,8.7.43,13.05.27,8.7.44,17.4.58,26.1.14,8.7.19,17.4.28,26.1.08,8.7.12,17.4-.01,26.1-.06,4.35-.18,8.7-.31,13.05l-.47,13.05c-.08,2.18-.18,4.35-.29,6.53-.14,2.18-.25,4.35-.42,6.53-.32,4.35-.71,8.7-1.31,13.05h-4.67c-.6-4.35-1-8.7-1.31-13.05-.17-2.18-.28-4.35-.42-6.53-.11-2.17-.21-4.35-.29-6.53l-.47-13.05c-.13-4.35-.25-8.7-.31-13.05-.13-8.7-.09-17.4-.01-26.1.09-8.7.14-17.4.28-26.1.14-8.7.32-17.4.58-26.1.11-4.35.28-8.7.43-13.05l.46-13.05c.32-8.7.77-17.4,1.3-26.1.54-8.7,1.18-17.4,2.09-26.1Z"/>
      </g>
    </g>
  </g>
  <text class="st4" transform="translate(753.33 344.84)"><tspan x="0" y="0">NIYA FOODS</tspan></text>
</svg>